<svg width="128" height="128" viewBox="0 0 128 128" xmlns="http://www.w3.org/2000/svg">
  <defs>
    <filter id="shadow" x="-10%" y="-10%" width="130%" height="130%">
      <feDropShadow dx="2" dy="2" stdDeviation="3" flood-color="rgba(255,255,255,0.3)"/>
    </filter>
  </defs>
  <!-- Blueprint dark background -->
  <rect width="128" height="128" fill="#001a33"/>
  <!-- Grid lines -->
  <g stroke="rgba(255,255,255,0.07)" stroke-width="1">
    <line x1="0" y1="16" x2="128" y2="16"/>
    <line x1="0" y1="32" x2="128" y2="32"/>
    <line x1="0" y1="48" x2="128" y2="48"/>
    <line x1="0" y1="64" x2="128" y2="64"/>
    <line x1="0" y1="80" x2="128" y2="80"/>
    <line x1="0" y1="96" x2="128" y2="96"/>
    <line x1="0" y1="112" x2="128" y2="112"/>
    <line x1="16" y1="0" x2="16" y2="128"/>
    <line x1="32" y1="0" x2="32" y2="128"/>
    <line x1="48" y1="0" x2="48" y2="128"/>
    <line x1="64" y1="0" x2="64" y2="128"/>
    <line x1="80" y1="0" x2="80" y2="128"/>
    <line x1="96" y1="0" x2="96" y2="128"/>
    <line x1="112" y1="0" x2="112" y2="128"/>
  </g>
  <!-- Hash symbol with drop shadow -->
  <g transform="translate(64,64) skewX(-15) skewY(5) scale(2.5) translate(-20,-20)" stroke="white" fill="none" stroke-width="2.5" stroke-linecap="round" filter="url(#shadow)">
    <path d="M15 6 V34 M25 6 V34 M6 15 H34 M6 25 H34"/>
  </g>
</svg>
