<svg width="640" height="640" viewBox="0 0 640 640" fill="none" xmlns="http://www.w3.org/2000/svg">
    <rect width="640" height="640" fill="black" />
    <path d="M406.154 119.855L520 233.784L481.538 272.274L367.692 158.344L406.154 119.855Z"
        fill="#FBCB4A" />
    <path
        d="M367.692 158.344L339.253 129.889C334.313 124.882 328.145 119.025 318.291 119L261.192 121.633C251.338 121.608 245.907 126.199 240.993 131.181L213.848 158.346L481.539 426.231L508.684 399.067C513.598 394.085 518.512 389.104 518.487 379.116L518.333 319.189C518.308 309.201 513.368 304.195 508.428 299.188L481.538 272.274L443.077 310.763L329.231 196.834L367.692 158.344Z"
        fill="#FBCB4A" />
    <path
        d="M233.846 520.145L120 406.216L158.464 367.724L131.572 340.812C126.632 335.805 121.692 330.799 121.667 320.811L121.513 260.884C121.488 250.897 126.402 245.915 131.316 240.934L158.461 213.769L426.152 481.655L399.007 508.819C394.093 513.801 388.662 518.392 378.808 518.367L321.709 521C311.855 520.975 305.687 515.118 300.747 510.111L272.31 481.653L310.769 443.167L196.923 329.238L158.464 367.724L272.31 481.653L233.846 520.145Z"
        fill="#FBCB4A" />
</svg>