<svg width="640" height="640" viewBox="0 0 640 640" fill="none" xmlns="http://www.w3.org/2000/svg">
    <path d="M389.354 158.689L481 250.512L450.038 281.534L358.392 189.71L389.354 158.689Z"
        fill="#FBCB4A" />
    <path
        d="M358.392 189.71L335.498 166.776C331.522 162.741 326.556 158.02 318.624 158L272.659 160.122C264.727 160.102 260.355 163.802 256.399 167.817L234.548 189.711L450.039 405.619L471.89 383.725C475.846 379.71 479.802 375.695 479.782 367.646L479.658 319.346C479.638 311.296 475.661 307.261 471.685 303.226L450.038 281.534L419.077 312.555L327.431 220.732L358.392 189.71Z"
        fill="#FBCB4A" />
    <path
        d="M250.646 481.311L159 389.488L189.964 358.464L168.315 336.774C164.339 332.739 160.362 328.704 160.342 320.654L160.218 272.355C160.198 264.305 164.154 260.29 168.11 256.275L189.961 234.381L405.452 450.289L383.601 472.183C379.645 476.198 375.273 479.898 367.341 479.878L321.376 482C313.444 481.98 308.478 477.259 304.502 473.224L281.61 450.288L312.569 419.269L220.923 327.445L189.964 358.464L281.61 450.288L250.646 481.311Z"
        fill="#FBCB4A" />
</svg>