<?xml version="1.0" encoding="UTF-8"?>
<svg xmlns="http://www.w3.org/2000/svg" xmlns:xlink="http://www.w3.org/1999/xlink" width="80px" height="80px" viewBox="0 0 80 80" version="1.1">
<g id="surface1">
<path style=" stroke:none;fill-rule:nonzero;fill:rgb(36.470589%,31.37255%,17.254902%);fill-opacity:1;" d="M 39.441406 -0.0507812 C 39.9375 -0.0507812 40.429688 -0.0546875 40.925781 -0.0585938 C 43.800781 -0.0664062 46.609375 0.222656 49.398438 0.929688 C 49.566406 0.972656 49.734375 1.011719 49.90625 1.054688 C 56.042969 2.617188 61.660156 5.566406 66.398438 9.761719 C 66.605469 9.9375 66.605469 9.9375 66.816406 10.121094 C 68.476562 11.585938 69.996094 13.132812 71.359375 14.878906 C 71.488281 15.039062 71.617188 15.199219 71.75 15.363281 C 72.800781 16.679688 73.699219 18.070312 74.558594 19.519531 C 74.625 19.628906 74.691406 19.738281 74.761719 19.851562 C 78.296875 25.777344 80.066406 32.566406 80.050781 39.441406 C 80.050781 39.9375 80.054688 40.429688 80.058594 40.925781 C 80.066406 43.800781 79.777344 46.609375 79.070312 49.398438 C 79.027344 49.566406 78.988281 49.734375 78.945312 49.90625 C 77.382812 56.042969 74.433594 61.660156 70.238281 66.398438 C 70.121094 66.539062 70 66.675781 69.878906 66.816406 C 68.414062 68.476562 66.867188 69.996094 65.121094 71.359375 C 64.960938 71.488281 64.800781 71.617188 64.636719 71.75 C 63.320312 72.800781 61.929688 73.699219 60.480469 74.558594 C 60.371094 74.625 60.261719 74.691406 60.148438 74.761719 C 54.222656 78.296875 47.433594 80.066406 40.558594 80.050781 C 40.0625 80.050781 39.570312 80.054688 39.074219 80.058594 C 36.199219 80.066406 33.390625 79.777344 30.601562 79.070312 C 30.433594 79.027344 30.265625 78.988281 30.09375 78.945312 C 23.957031 77.382812 18.339844 74.433594 13.601562 70.238281 C 13.460938 70.121094 13.324219 70 13.183594 69.878906 C 11.523438 68.414062 10.003906 66.867188 8.640625 65.121094 C 8.511719 64.960938 8.382812 64.800781 8.25 64.636719 C 7.199219 63.320312 6.300781 61.929688 5.441406 60.480469 C 5.375 60.371094 5.308594 60.261719 5.238281 60.148438 C 1.703125 54.222656 -0.0664062 47.433594 -0.0507812 40.558594 C -0.0507812 40.0625 -0.0546875 39.570312 -0.0585938 39.074219 C -0.0664062 36.199219 0.222656 33.390625 0.929688 30.601562 C 0.972656 30.433594 1.011719 30.265625 1.054688 30.09375 C 2.617188 23.957031 5.566406 18.339844 9.761719 13.601562 C 9.878906 13.460938 10 13.324219 10.121094 13.183594 C 11.585938 11.523438 13.132812 10.003906 14.878906 8.640625 C 15.039062 8.511719 15.199219 8.382812 15.363281 8.25 C 16.679688 7.199219 18.070312 6.300781 19.519531 5.441406 C 19.628906 5.375 19.738281 5.308594 19.851562 5.238281 C 25.777344 1.703125 32.566406 -0.0664062 39.441406 -0.0507812 Z M 39.441406 -0.0507812 "/>
<path style=" stroke:none;fill-rule:nonzero;fill:rgb(49.803922%,44.313726%,29.411766%);fill-opacity:1;" d="M 39.441406 -0.0507812 C 39.9375 -0.0507812 40.429688 -0.0546875 40.925781 -0.0585938 C 43.800781 -0.0664062 46.609375 0.222656 49.398438 0.929688 C 49.566406 0.972656 49.734375 1.011719 49.90625 1.054688 C 56.042969 2.617188 61.660156 5.566406 66.398438 9.761719 C 66.605469 9.9375 66.605469 9.9375 66.816406 10.121094 C 68.476562 11.585938 69.996094 13.132812 71.359375 14.878906 C 71.488281 15.039062 71.617188 15.199219 71.75 15.363281 C 72.800781 16.679688 73.699219 18.070312 74.558594 19.519531 C 74.625 19.628906 74.691406 19.738281 74.761719 19.851562 C 78.296875 25.777344 80.066406 32.566406 80.050781 39.441406 C 80.050781 39.9375 80.054688 40.429688 80.058594 40.925781 C 80.066406 43.800781 79.777344 46.609375 79.070312 49.398438 C 79.027344 49.566406 78.988281 49.734375 78.945312 49.90625 C 77.382812 56.042969 74.433594 61.660156 70.238281 66.398438 C 70.121094 66.539062 70 66.675781 69.878906 66.816406 C 68.414062 68.476562 66.867188 69.996094 65.121094 71.359375 C 64.960938 71.488281 64.800781 71.617188 64.636719 71.75 C 63.320312 72.800781 61.929688 73.699219 60.480469 74.558594 C 60.371094 74.625 60.261719 74.691406 60.148438 74.761719 C 54.222656 78.296875 47.433594 80.066406 40.558594 80.050781 C 40.0625 80.050781 39.570312 80.054688 39.074219 80.058594 C 36.199219 80.066406 33.390625 79.777344 30.601562 79.070312 C 30.433594 79.027344 30.265625 78.988281 30.09375 78.945312 C 23.957031 77.382812 18.339844 74.433594 13.601562 70.238281 C 13.460938 70.121094 13.324219 70 13.183594 69.878906 C 11.523438 68.414062 10.003906 66.867188 8.640625 65.121094 C 8.511719 64.960938 8.382812 64.800781 8.25 64.636719 C 7.199219 63.320312 6.300781 61.929688 5.441406 60.480469 C 5.375 60.371094 5.308594 60.261719 5.238281 60.148438 C 1.703125 54.222656 -0.0664062 47.433594 -0.0507812 40.558594 C -0.0507812 40.0625 -0.0546875 39.570312 -0.0585938 39.074219 C -0.0664062 36.199219 0.222656 33.390625 0.929688 30.601562 C 0.972656 30.433594 1.011719 30.265625 1.054688 30.09375 C 2.617188 23.957031 5.566406 18.339844 9.761719 13.601562 C 9.878906 13.460938 10 13.324219 10.121094 13.183594 C 11.585938 11.523438 13.132812 10.003906 14.878906 8.640625 C 15.039062 8.511719 15.199219 8.382812 15.363281 8.25 C 16.679688 7.199219 18.070312 6.300781 19.519531 5.441406 C 19.628906 5.375 19.738281 5.308594 19.851562 5.238281 C 25.777344 1.703125 32.566406 -0.0664062 39.441406 -0.0507812 Z M 29.761719 5.761719 C 29.644531 5.792969 29.527344 5.824219 29.40625 5.855469 C 28.082031 6.226562 27.140625 6.644531 26.398438 7.839844 C 26.074219 8.46875 25.882812 9.09375 25.691406 9.769531 C 25.363281 10.851562 24.972656 11.457031 24 12.058594 C 23.042969 12.550781 22.179688 12.632812 21.121094 12.480469 C 20.964844 12.425781 20.8125 12.375 20.652344 12.320312 C 20.105469 12.140625 19.644531 12.09375 19.070312 12.078125 C 18.886719 12.070312 18.703125 12.0625 18.515625 12.054688 C 16.9375 12.332031 15.824219 13.707031 14.75 14.800781 C 14.601562 14.949219 14.453125 15.097656 14.300781 15.25 C 12.773438 16.753906 12.773438 16.753906 12.289062 18.769531 C 12.289062 18.917969 12.285156 19.066406 12.28125 19.21875 C 12.300781 19.6875 12.300781 19.6875 12.476562 20.148438 C 12.832031 21.21875 12.855469 22.578125 12.371094 23.609375 C 11.804688 24.542969 11.023438 25.277344 9.953125 25.558594 C 9.796875 25.589844 9.640625 25.617188 9.480469 25.648438 C 8.414062 25.90625 7.441406 26.261719 6.820312 27.21875 C 6.3125 28.242188 5.988281 29.257812 5.71875 30.371094 C 5.679688 30.53125 5.636719 30.691406 5.597656 30.859375 C 4.933594 33.300781 4.933594 33.300781 5.511719 35.675781 C 5.828125 36.09375 6.191406 36.4375 6.570312 36.800781 C 7.597656 37.796875 7.847656 38.484375 7.929688 39.898438 C 7.902344 40.992188 7.570312 41.722656 6.878906 42.558594 C 6.628906 42.792969 6.628906 42.792969 6.390625 42.980469 C 5.664062 43.566406 5.210938 44.132812 5.042969 45.066406 C 4.933594 47.40625 5.683594 50.933594 7.144531 52.824219 C 7.863281 53.496094 8.738281 53.78125 9.675781 54.019531 C 10.890625 54.339844 11.722656 54.832031 12.390625 55.921875 C 12.964844 57.203125 12.710938 58.703125 12.320312 60 C 12.171875 61.097656 12.246094 61.894531 12.921875 62.785156 C 15.316406 65.855469 15.316406 65.855469 18.609375 67.550781 C 19.34375 67.566406 19.972656 67.574219 20.648438 67.28125 C 21.539062 66.902344 22.386719 66.875 23.304688 67.179688 C 24.320312 67.640625 25.128906 68.261719 25.59375 69.304688 C 25.71875 69.671875 25.828125 70.039062 25.929688 70.410156 C 26.222656 71.460938 26.511719 72.332031 27.464844 72.980469 C 28.414062 73.5 29.46875 73.75 30.511719 74.03125 C 30.777344 74.105469 30.777344 74.105469 31.050781 74.179688 C 33.464844 74.890625 33.464844 74.890625 35.828125 74.328125 C 36.402344 73.898438 36.878906 73.378906 37.359375 72.855469 C 38.164062 72.101562 38.910156 71.914062 39.988281 71.929688 C 40.105469 71.929688 40.21875 71.933594 40.335938 71.933594 C 41.859375 71.988281 42.453125 72.683594 43.480469 73.738281 C 44.179688 74.402344 44.796875 74.679688 45.75 74.800781 C 47.933594 74.691406 51.722656 73.882812 53.230469 72.25 C 53.800781 71.570312 53.945312 70.917969 54.125 70.0625 C 54.441406 68.789062 55.234375 68.039062 56.320312 67.359375 C 57.0625 66.929688 57.882812 66.953125 58.71875 67.039062 C 59.050781 67.148438 59.050781 67.148438 59.359375 67.28125 C 60.199219 67.632812 61.027344 67.660156 61.914062 67.441406 C 63.109375 66.945312 64.046875 65.847656 64.960938 64.960938 C 65.097656 64.828125 65.238281 64.695312 65.378906 64.558594 C 66.953125 63.082031 66.953125 63.082031 67.722656 61.144531 C 67.722656 60.980469 67.722656 60.820312 67.71875 60.648438 C 67.722656 60.488281 67.722656 60.324219 67.722656 60.15625 C 67.679688 59.664062 67.542969 59.332031 67.359375 58.878906 C 67.1875 57.492188 67.339844 56.347656 68.160156 55.199219 C 68.796875 54.507812 69.515625 54.101562 70.441406 53.949219 C 71.664062 53.691406 72.582031 53.042969 73.28125 52 C 73.484375 51.566406 73.628906 51.125 73.769531 50.671875 C 73.808594 50.546875 73.851562 50.421875 73.890625 50.292969 C 74.949219 47.289062 74.949219 47.289062 74.601562 44.28125 C 74.214844 43.597656 73.765625 43.039062 73.199219 42.5 C 72.394531 41.652344 72.121094 41.09375 72.089844 39.929688 C 72.160156 38.214844 72.625 37.570312 73.859375 36.390625 C 74.5625 35.671875 74.910156 35.011719 74.921875 34 C 74.90625 33.035156 74.695312 32.148438 74.449219 31.21875 C 74.40625 31.050781 74.363281 30.882812 74.316406 30.707031 C 73.722656 28.339844 73.722656 28.339844 72.320312 26.398438 C 71.601562 25.984375 70.84375 25.742188 70.050781 25.519531 C 68.898438 25.183594 68.285156 24.6875 67.675781 23.664062 C 67.347656 23.023438 67.332031 22.488281 67.328125 21.78125 C 67.328125 21.585938 67.324219 21.390625 67.324219 21.191406 C 67.359375 20.65625 67.472656 20.328125 67.679688 19.839844 C 67.742188 19.421875 67.742188 19.421875 67.738281 18.988281 C 67.746094 18.847656 67.75 18.707031 67.753906 18.5625 C 67.554688 17.25 66.71875 16.371094 65.820312 15.449219 C 65.707031 15.332031 65.59375 15.210938 65.472656 15.089844 C 63.46875 12.890625 63.46875 12.890625 60.710938 12.109375 C 59.972656 12.113281 59.414062 12.238281 58.71875 12.480469 C 57.519531 12.667969 56.613281 12.441406 55.582031 11.8125 C 54.515625 10.996094 54.273438 9.882812 53.914062 8.640625 C 53.617188 7.71875 53.144531 7.085938 52.320312 6.558594 C 50.136719 5.550781 46.773438 4.3125 44.398438 5.160156 C 43.582031 5.726562 43.582031 5.726562 42.929688 6.46875 C 42.265625 7.203125 41.460938 7.597656 40.484375 7.757812 C 39.316406 7.8125 38.394531 7.566406 37.441406 6.878906 C 37.167969 6.609375 36.933594 6.328125 36.699219 6.023438 C 36.179688 5.402344 35.492188 5.015625 34.691406 4.917969 C 32.988281 4.851562 31.386719 5.308594 29.761719 5.761719 Z M 29.761719 5.761719 "/>
<path style=" stroke:none;fill-rule:nonzero;fill:rgb(97.647059%,78.823531%,29.019609%);fill-opacity:1;" d="M 31.398438 24.898438 C 31.597656 24.898438 31.796875 24.894531 32 24.894531 C 32.214844 24.894531 32.429688 24.898438 32.648438 24.898438 C 32.878906 24.898438 33.109375 24.894531 33.335938 24.894531 C 33.960938 24.894531 34.582031 24.894531 35.203125 24.894531 C 35.855469 24.898438 36.507812 24.894531 37.15625 24.894531 C 38.25 24.894531 39.34375 24.894531 40.433594 24.898438 C 41.699219 24.898438 42.964844 24.898438 44.226562 24.898438 C 45.3125 24.894531 46.398438 24.894531 47.484375 24.894531 C 48.132812 24.894531 48.78125 24.894531 49.429688 24.894531 C 50.039062 24.894531 50.648438 24.894531 51.253906 24.898438 C 51.480469 24.898438 51.703125 24.898438 51.925781 24.894531 C 52.230469 24.894531 52.535156 24.898438 52.839844 24.898438 C 53.097656 24.898438 53.097656 24.898438 53.359375 24.898438 C 53.492188 24.917969 53.625 24.941406 53.761719 24.960938 C 54.160156 25.558594 54.121094 25.875 54.121094 26.589844 C 54.121094 26.703125 54.125 26.8125 54.125 26.929688 C 54.125 27.164062 54.125 27.402344 54.121094 27.636719 C 54.121094 28 54.121094 28.359375 54.125 28.722656 C 54.125 28.949219 54.125 29.179688 54.121094 29.410156 C 54.121094 29.617188 54.121094 29.828125 54.121094 30.042969 C 54.078125 30.558594 54.078125 30.558594 53.761719 31.039062 C 53.351562 31.101562 53.351562 31.101562 52.828125 31.105469 C 52.628906 31.105469 52.433594 31.109375 52.226562 31.109375 C 52.007812 31.109375 51.785156 31.109375 51.566406 31.109375 C 51.332031 31.109375 51.101562 31.113281 50.871094 31.113281 C 50.238281 31.117188 49.609375 31.121094 48.976562 31.121094 C 48.320312 31.121094 47.660156 31.125 47.003906 31.128906 C 45.757812 31.136719 44.507812 31.140625 43.261719 31.144531 C 41.84375 31.148438 40.421875 31.15625 39.003906 31.164062 C 36.082031 31.179688 33.160156 31.191406 30.238281 31.199219 C 30.054688 31.570312 30.058594 31.785156 30.058594 32.199219 C 30.058594 32.339844 30.058594 32.484375 30.054688 32.628906 C 30.054688 32.789062 30.058594 32.945312 30.058594 33.105469 C 30.054688 33.269531 30.054688 33.433594 30.054688 33.605469 C 30.054688 34.152344 30.054688 34.699219 30.054688 35.246094 C 30.050781 35.621094 30.050781 36 30.050781 36.378906 C 30.050781 37.175781 30.050781 37.96875 30.050781 38.765625 C 30.050781 39.785156 30.046875 40.804688 30.046875 41.824219 C 30.042969 42.605469 30.042969 43.386719 30.042969 44.167969 C 30.042969 44.546875 30.042969 44.921875 30.042969 45.296875 C 30.039062 45.824219 30.039062 46.347656 30.042969 46.875 C 30.039062 47.03125 30.039062 47.1875 30.039062 47.347656 C 30.039062 47.492188 30.039062 47.632812 30.039062 47.78125 C 30.039062 47.90625 30.039062 48.027344 30.039062 48.15625 C 30.0625 48.53125 30.0625 48.53125 30.398438 48.960938 C 30.820312 49.035156 30.820312 49.035156 31.324219 49.023438 C 31.519531 49.023438 31.71875 49.027344 31.921875 49.027344 C 32.140625 49.027344 32.359375 49.027344 32.578125 49.027344 C 32.808594 49.027344 33.039062 49.027344 33.269531 49.03125 C 33.894531 49.035156 34.519531 49.035156 35.144531 49.035156 C 35.796875 49.035156 36.449219 49.039062 37.105469 49.042969 C 38.34375 49.050781 39.582031 49.054688 40.816406 49.058594 C 43.035156 49.0625 45.253906 49.070312 47.472656 49.082031 C 48.253906 49.085938 49.03125 49.085938 49.8125 49.089844 C 50.292969 49.089844 50.777344 49.089844 51.261719 49.09375 C 51.488281 49.09375 51.710938 49.09375 51.9375 49.09375 C 52.242188 49.09375 52.550781 49.097656 52.855469 49.097656 C 53.027344 49.097656 53.199219 49.097656 53.375 49.097656 C 53.761719 49.121094 53.761719 49.121094 53.921875 49.28125 C 53.9375 49.679688 53.941406 50.078125 53.941406 50.480469 C 53.941406 50.601562 53.941406 50.71875 53.941406 50.84375 C 53.941406 51.097656 53.941406 51.351562 53.941406 51.609375 C 53.941406 52 53.941406 52.390625 53.941406 52.78125 C 53.941406 53.027344 53.941406 53.273438 53.941406 53.519531 C 53.941406 53.636719 53.941406 53.753906 53.941406 53.875 C 53.9375 54.703125 53.9375 54.703125 53.761719 54.878906 C 53.457031 54.898438 53.15625 54.902344 52.855469 54.902344 C 52.65625 54.90625 52.460938 54.90625 52.257812 54.90625 C 52.039062 54.90625 51.816406 54.90625 51.597656 54.910156 C 51.367188 54.910156 51.136719 54.910156 50.90625 54.910156 C 50.28125 54.914062 49.652344 54.914062 49.027344 54.917969 C 48.632812 54.917969 48.242188 54.917969 47.851562 54.921875 C 46.625 54.921875 45.402344 54.925781 44.175781 54.925781 C 42.761719 54.929688 41.34375 54.933594 39.929688 54.9375 C 38.835938 54.945312 37.746094 54.945312 36.652344 54.945312 C 36 54.945312 35.34375 54.949219 34.691406 54.953125 C 34.078125 54.957031 33.464844 54.957031 32.847656 54.957031 C 32.621094 54.957031 32.398438 54.957031 32.171875 54.957031 C 30.074219 54.976562 30.074219 54.976562 29.28125 54.238281 C 29.183594 54.15625 29.085938 54.074219 28.984375 53.988281 C 28.902344 53.90625 28.820312 53.824219 28.738281 53.742188 C 28.644531 53.648438 28.550781 53.554688 28.453125 53.460938 C 28.351562 53.363281 28.253906 53.261719 28.152344 53.160156 C 28.050781 53.058594 27.945312 52.953125 27.835938 52.847656 C 27.621094 52.628906 27.402344 52.414062 27.183594 52.195312 C 26.851562 51.859375 26.515625 51.53125 26.179688 51.199219 C 25.96875 50.988281 25.753906 50.773438 25.542969 50.5625 C 25.394531 50.414062 25.394531 50.414062 25.242188 50.265625 C 25.101562 50.125 25.101562 50.125 24.960938 49.980469 C 24.878906 49.898438 24.796875 49.816406 24.714844 49.734375 C 23.96875 48.796875 23.929688 47.972656 23.933594 46.820312 C 23.929688 46.65625 23.929688 46.488281 23.929688 46.320312 C 23.925781 45.773438 23.925781 45.230469 23.925781 44.6875 C 23.925781 44.308594 23.921875 43.925781 23.921875 43.546875 C 23.917969 42.753906 23.917969 41.957031 23.917969 41.164062 C 23.921875 40.144531 23.914062 39.128906 23.910156 38.113281 C 23.90625 37.328125 23.90625 36.546875 23.90625 35.761719 C 23.90625 35.386719 23.902344 35.011719 23.902344 34.636719 C 23.898438 34.113281 23.898438 33.585938 23.902344 33.0625 C 23.898438 32.90625 23.898438 32.753906 23.894531 32.59375 C 23.914062 30.976562 24.753906 30.050781 25.859375 28.957031 C 26.007812 28.808594 26.007812 28.808594 26.160156 28.652344 C 26.371094 28.445312 26.578125 28.234375 26.789062 28.027344 C 27.109375 27.710938 27.429688 27.390625 27.746094 27.070312 C 27.949219 26.863281 28.15625 26.660156 28.359375 26.457031 C 28.453125 26.363281 28.546875 26.265625 28.644531 26.167969 C 28.78125 26.035156 28.78125 26.035156 28.917969 25.898438 C 28.996094 25.824219 29.074219 25.746094 29.152344 25.664062 C 29.863281 25.105469 30.503906 24.898438 31.398438 24.898438 Z M 31.398438 24.898438 "/>
</g>
</svg>
